<svg width="60" height="95" viewBox="0 0 60 95" fill="none" xmlns="http://www.w3.org/2000/svg">
<path fill-rule="evenodd" clip-rule="evenodd" d="M58.2339 35.3679C57.7706 34.4976 57.0802 33.769 56.2353 33.2612C55.39 32.7526 54.4233 32.4838 53.4368 32.4829H40.7232L39.4108 38.3228L53.0723 38.5222C53.23 39.234 53.246 39.9691 53.1188 40.6859C52.9925 41.4035 52.7251 42.0882 52.3333 42.7028L25.8276 87.1094C25.5997 87.5164 25.306 87.8837 24.9588 88.196C24.8179 87.5551 24.8179 86.8908 24.9588 86.2493L32.2849 49.1856L25.5932 51.8877L19.076 85.0766C18.1108 89.9517 20.2401 93.115 22.769 94.0875C23.3858 94.32 24.0396 94.4377 24.6982 94.4354C26.7316 94.4354 29.1481 93.3495 31.0245 90.2033L57.5213 45.7959C59.555 42.39 59.8414 38.2447 58.2339 35.3679ZM21.4194 46.0372H18.1752V42.7927C18.1752 42.3945 17.8523 42.0716 17.454 42.0716H16.7336C16.3353 42.0716 16.0123 42.3945 16.0123 42.7927V46.0372H12.768C12.3697 46.0372 12.0468 46.3601 12.0468 46.7584V47.4788C12.0468 47.8771 12.3697 48.2 12.768 48.2H16.0123V51.4442C16.0123 51.8426 16.3353 52.1656 16.7336 52.1656H17.454C17.8523 52.1656 18.1752 51.8426 18.1752 51.4442V48.2H21.4194C21.8178 48.2 22.1406 47.8771 22.1406 47.4788V46.7584C22.1406 46.3601 21.8178 46.0372 21.4194 46.0372ZM46.1649 46.0372H42.9205H40.7578H37.5132C37.1152 46.0372 36.7928 46.3601 36.7928 46.7584V47.4796C36.7928 47.8771 37.1152 48.2 37.5132 48.2H40.7578H42.9205H46.1649C46.5632 48.2 46.8861 47.8771 46.8861 47.4796V46.7584C46.8861 46.3601 46.5632 46.0372 46.1649 46.0372ZM6.21402 55.9204C6.05393 55.2108 6.03797 54.4756 6.16661 53.7596C6.29443 53.0427 6.5648 52.3596 6.96155 51.7494L33.449 7.33325C33.6807 6.92853 33.9736 6.5617 34.3185 6.24663C34.4639 6.88755 34.4639 7.55258 34.3185 8.19332L27.0012 45.0056L33.6924 42.3028L40.2103 9.36692C41.1659 4.49168 39.0454 1.32837 36.5085 0.355118C34.2835 -0.51384 30.7811 0.00728607 28.2609 4.23958L1.74735 48.6731C-0.286277 52.0789 -0.572697 56.2768 1.03477 59.101C1.50168 59.9691 2.19513 60.6941 3.0412 61.1988C3.8874 61.7047 4.8549 61.9706 5.84062 61.9692H18.8757L20.2664 55.886L6.21402 55.9204Z" fill="#FF4F00"/>
</svg>
